<svg width="23" height="18" viewBox="0 0 23 18" fill="none" xmlns="http://www.w3.org/2000/svg">
<path d="M21.875 0H0.875C0.642936 0 0.420376 0.0921874 0.256282 0.256282C0.0921872 0.420376 0 0.642936 0 0.875V15.75C0 16.2141 0.184374 16.6592 0.512563 16.9874C0.840752 17.3156 1.28587 17.5 1.75 17.5H21C21.4641 17.5 21.9092 17.3156 22.2374 16.9874C22.5656 16.6592 22.75 16.2141 22.75 15.75V0.875C22.75 0.642936 22.6578 0.420376 22.4937 0.256282C22.3296 0.0921874 22.1071 0 21.875 0ZM19.6252 1.75L11.375 9.31328L3.12484 1.75H19.6252ZM21 15.75H1.75V2.86453L10.7833 11.1453C10.9447 11.2935 11.1559 11.3757 11.375 11.3757C11.5941 11.3757 11.8053 11.2935 11.9667 11.1453L21 2.86453V15.75Z" fill="#878787"/>
</svg>
