<svg width="22" height="18" viewBox="0 0 22 18" fill="none" xmlns="http://www.w3.org/2000/svg">
<g filter="url(#filter0_i_1018_51)">
<path d="M1.00006 4L9.16498 9.71544C9.82615 10.1783 10.1567 10.4097 10.5163 10.4993C10.834 10.5785 11.1662 10.5785 11.4838 10.4993C11.8434 10.4097 12.174 10.1783 12.8351 9.71544L21.0001 4M5.80006 17H16.2001C17.8802 17 18.7203 17 19.362 16.673C19.9265 16.3854 20.3855 15.9265 20.6731 15.362C21.0001 14.7202 21.0001 13.8802 21.0001 12.2V5.8C21.0001 4.11984 21.0001 3.27976 20.6731 2.63803C20.3855 2.07354 19.9265 1.6146 19.362 1.32698C18.7203 1 17.8802 1 16.2001 1H5.80006C4.1199 1 3.27982 1 2.63809 1.32698C2.0736 1.6146 1.61466 2.07354 1.32704 2.63803C1.00006 3.27976 1.00006 4.11984 1.00006 5.8V12.2C1.00006 13.8802 1.00006 14.7202 1.32704 15.362C1.61466 15.9265 2.0736 16.3854 2.63809 16.673C3.27982 17 4.1199 17 5.80006 17Z" stroke="#EDEDED" stroke-width="2" stroke-linecap="round" stroke-linejoin="round"/>
</g>
<defs>
<filter id="filter0_i_1018_51" x="0" y="0" width="22.0001" height="22" filterUnits="userSpaceOnUse" color-interpolation-filters="sRGB">
<feFlood flood-opacity="0" result="BackgroundImageFix"/>
<feBlend mode="normal" in="SourceGraphic" in2="BackgroundImageFix" result="shape"/>
<feColorMatrix in="SourceAlpha" type="matrix" values="0 0 0 0 0 0 0 0 0 0 0 0 0 0 0 0 0 0 127 0" result="hardAlpha"/>
<feOffset dy="4"/>
<feGaussianBlur stdDeviation="2"/>
<feComposite in2="hardAlpha" operator="arithmetic" k2="-1" k3="1"/>
<feColorMatrix type="matrix" values="0 0 0 0 0 0 0 0 0 0 0 0 0 0 0 0 0 0 0.17 0"/>
<feBlend mode="normal" in2="shape" result="effect1_innerShadow_1018_51"/>
</filter>
</defs>
</svg>
