<svg width="23" height="23" viewBox="0 0 23 23" fill="none" xmlns="http://www.w3.org/2000/svg">
<path d="M11.375 0C9.12524 0 6.926 0.667132 5.05539 1.91703C3.18478 3.16693 1.72682 4.94347 0.865875 7.02198C0.00492861 9.10049 -0.220334 11.3876 0.218573 13.5942C0.657479 15.8007 1.74084 17.8275 3.33167 19.4183C4.92249 21.0092 6.94932 22.0925 9.15585 22.5314C11.3624 22.9703 13.6495 22.7451 15.728 21.8841C17.8065 21.0232 19.5831 19.5652 20.833 17.6946C22.0829 15.824 22.75 13.6248 22.75 11.375C22.7468 8.35914 21.5474 5.46771 19.4148 3.33518C17.2823 1.20264 14.3909 0.0031848 11.375 0ZM20.9595 10.5H16.6031C16.4489 7.38719 15.4798 4.43297 13.8556 2.07812C15.7579 2.58883 17.4582 3.66958 18.7282 5.17513C19.9981 6.68067 20.7768 8.53887 20.9595 10.5ZM11.375 20.988C9.32641 18.7709 8.08391 15.6286 7.90016 12.25H14.8498C14.6661 15.6264 13.4236 18.7709 11.375 20.988ZM7.90016 10.5C8.08391 7.12359 9.32204 3.97906 11.375 1.76203C13.4236 3.97906 14.6661 7.12141 14.8498 10.5H7.90016ZM8.89438 2.07812C7.27016 4.43297 6.3011 7.38719 6.14688 10.5H1.79047C1.97322 8.53887 2.75189 6.68067 4.02183 5.17513C5.29176 3.66958 6.99212 2.58883 8.89438 2.07812ZM1.79047 12.25H6.14688C6.3011 15.3628 7.27016 18.317 8.89438 20.6719C6.99212 20.1612 5.29176 19.0804 4.02183 17.5749C2.75189 16.0693 1.97322 14.2111 1.79047 12.25ZM13.8556 20.6719C15.4798 18.3138 16.4489 15.3595 16.6031 12.25H20.9595C20.7768 14.2111 19.9981 16.0693 18.7282 17.5749C17.4582 19.0804 15.7579 20.1612 13.8556 20.6719Z" fill="#878787"/>
</svg>
