<svg width="21" height="23" viewBox="0 0 21 23" fill="none" xmlns="http://www.w3.org/2000/svg">
<path d="M20.7581 16.6184C20.1511 15.5728 19.2487 12.6142 19.2487 8.75C19.2487 6.42936 18.3269 4.20376 16.6859 2.56282C15.045 0.921872 12.8194 0 10.4987 0C8.17809 0 5.95249 0.921872 4.31155 2.56282C2.6706 4.20376 1.74873 6.42936 1.74873 8.75C1.74873 12.6153 0.845295 15.5728 0.238263 16.6184C0.0832469 16.8843 0.00106673 17.1863 1.03151e-05 17.494C-0.0010461 17.8017 0.0790588 18.1043 0.232247 18.3712C0.385434 18.638 0.606288 18.8598 0.872535 19.0141C1.13878 19.1684 1.44101 19.2498 1.74873 19.25H6.21233C6.4142 20.2378 6.95107 21.1256 7.73213 21.7632C8.51318 22.4008 9.49049 22.749 10.4987 22.749C11.507 22.749 12.4843 22.4008 13.2653 21.7632C14.0464 21.1256 14.5833 20.2378 14.7851 19.25H19.2487C19.5564 19.2496 19.8585 19.1681 20.1245 19.0137C20.3906 18.8593 20.6113 18.6375 20.7644 18.3707C20.9175 18.1038 20.9975 17.8014 20.9964 17.4937C20.9953 17.1861 20.9131 16.8842 20.7581 16.6184ZM10.4987 21C9.95604 20.9998 9.42673 20.8315 8.98367 20.5181C8.54061 20.2047 8.20557 19.7617 8.02467 19.25H12.9728C12.7919 19.7617 12.4569 20.2047 12.0138 20.5181C11.5707 20.8315 11.0414 20.9998 10.4987 21ZM1.74873 17.5C2.59092 16.0519 3.49873 12.6963 3.49873 8.75C3.49873 6.89348 4.23623 5.11301 5.54898 3.80025C6.86174 2.4875 8.64222 1.75 10.4987 1.75C12.3552 1.75 14.1357 2.4875 15.4485 3.80025C16.7612 5.11301 17.4987 6.89348 17.4987 8.75C17.4987 12.693 18.4044 16.0486 19.2487 17.5H1.74873Z" fill="#878787"/>
</svg>
