<svg width="20" height="10" viewBox="0 0 20 10" fill="none" xmlns="http://www.w3.org/2000/svg">
<path d="M15.8125 4.8125C15.8125 4.99484 15.7401 5.16971 15.6111 5.29864C15.4822 5.42757 15.3073 5.5 15.125 5.5H4.125C3.94266 5.5 3.7678 5.42757 3.63886 5.29864C3.50993 5.16971 3.4375 4.99484 3.4375 4.8125C3.4375 4.63016 3.50993 4.4553 3.63886 4.32636C3.7678 4.19743 3.94266 4.125 4.125 4.125H15.125C15.3073 4.125 15.4822 4.19743 15.6111 4.32636C15.7401 4.4553 15.8125 4.63016 15.8125 4.8125ZM18.5625 0H0.6875C0.505164 0 0.330295 0.072433 0.201364 0.201364C0.0724328 0.330295 0 0.505164 0 0.6875C0 0.869836 0.0724328 1.0447 0.201364 1.17364C0.330295 1.30257 0.505164 1.375 0.6875 1.375H18.5625C18.7448 1.375 18.9197 1.30257 19.0486 1.17364C19.1776 1.0447 19.25 0.869836 19.25 0.6875C19.25 0.505164 19.1776 0.330295 19.0486 0.201364C18.9197 0.072433 18.7448 0 18.5625 0ZM11.6875 8.25H7.5625C7.38016 8.25 7.2053 8.32243 7.07636 8.45136C6.94743 8.58029 6.875 8.75516 6.875 8.9375C6.875 9.11984 6.94743 9.29471 7.07636 9.42364C7.2053 9.55257 7.38016 9.625 7.5625 9.625H11.6875C11.8698 9.625 12.0447 9.55257 12.1736 9.42364C12.3026 9.29471 12.375 9.11984 12.375 8.9375C12.375 8.75516 12.3026 8.58029 12.1736 8.45136C12.0447 8.32243 11.8698 8.25 11.6875 8.25Z" fill="#515161"/>
</svg>
