<svg width="17" height="17" viewBox="0 0 17 17" fill="none" xmlns="http://www.w3.org/2000/svg">
<path d="M14.2373 13.2662C14.3656 13.395 14.4376 13.5695 14.4376 13.7513C14.4376 13.9331 14.3656 14.1076 14.2373 14.2364C14.1436 14.3284 11.9298 16.5 8.25 16.5C5.0368 16.5 2.70445 14.575 1.375 13.0754V15.125C1.375 15.3073 1.30257 15.4822 1.17364 15.6111C1.0447 15.7401 0.869836 15.8125 0.6875 15.8125C0.505164 15.8125 0.330295 15.7401 0.201364 15.6111C0.072433 15.4822 0 15.3073 0 15.125V11C0 10.8177 0.072433 10.6428 0.201364 10.5139C0.330295 10.3849 0.505164 10.3125 0.6875 10.3125H4.8125C4.99484 10.3125 5.1697 10.3849 5.29864 10.5139C5.42757 10.6428 5.5 10.8177 5.5 11C5.5 11.1823 5.42757 11.3572 5.29864 11.4861C5.1697 11.6151 4.99484 11.6875 4.8125 11.6875H2.01437C3.07312 13.0066 5.24219 15.125 8.25 15.125C11.3438 15.125 13.2464 13.2808 13.2653 13.2619C13.3948 13.1336 13.5699 13.062 13.7522 13.0628C13.9344 13.0636 14.1089 13.1368 14.2373 13.2662ZM15.8125 0.6875C15.6302 0.6875 15.4553 0.759933 15.3264 0.888864C15.1974 1.0178 15.125 1.19266 15.125 1.375V3.42461C13.7955 1.925 11.4632 0 8.25 0C4.57016 0 2.35641 2.17164 2.26359 2.26359C2.13436 2.39237 2.06158 2.56721 2.06126 2.74964C2.06094 2.93208 2.1331 3.10718 2.26187 3.23641C2.39065 3.36564 2.56549 3.43842 2.74793 3.43874C2.93036 3.43906 3.10546 3.3669 3.23469 3.23813C3.25359 3.21922 5.15625 1.375 8.25 1.375C11.2578 1.375 13.4269 3.49336 14.4856 4.8125H11.6875C11.5052 4.8125 11.3303 4.88493 11.2014 5.01386C11.0724 5.1428 11 5.31766 11 5.5C11 5.68234 11.0724 5.8572 11.2014 5.98614C11.3303 6.11507 11.5052 6.1875 11.6875 6.1875H15.8125C15.9948 6.1875 16.1697 6.11507 16.2986 5.98614C16.4276 5.8572 16.5 5.68234 16.5 5.5V1.375C16.5 1.19266 16.4276 1.0178 16.2986 0.888864C16.1697 0.759933 15.9948 0.6875 15.8125 0.6875Z" fill="#515161"/>
</svg>
