<svg width="23" height="21" viewBox="0 0 23 21" fill="none" xmlns="http://www.w3.org/2000/svg">
<path d="M12.25 9.625V20.125C12.25 20.3571 12.1578 20.5796 11.9937 20.7437C11.8296 20.9078 11.6071 21 11.375 21C11.1429 21 10.9204 20.9078 10.7563 20.7437C10.5922 20.5796 10.5 20.3571 10.5 20.125V9.625C10.5 9.39294 10.5922 9.17038 10.7563 9.00628C10.9204 8.84219 11.1429 8.75 11.375 8.75C11.6071 8.75 11.8296 8.84219 11.9937 9.00628C12.1578 9.17038 12.25 9.39294 12.25 9.625ZM19.25 17.5C19.0179 17.5 18.7954 17.5922 18.6313 17.7563C18.4672 17.9204 18.375 18.1429 18.375 18.375V20.125C18.375 20.3571 18.4672 20.5796 18.6313 20.7437C18.7954 20.9078 19.0179 21 19.25 21C19.4821 21 19.7046 20.9078 19.8687 20.7437C20.0328 20.5796 20.125 20.3571 20.125 20.125V18.375C20.125 18.1429 20.0328 17.9204 19.8687 17.7563C19.7046 17.5922 19.4821 17.5 19.25 17.5ZM21.875 14H20.125V0.875C20.125 0.642936 20.0328 0.420376 19.8687 0.256282C19.7046 0.0921874 19.4821 0 19.25 0C19.0179 0 18.7954 0.0921874 18.6313 0.256282C18.4672 0.420376 18.375 0.642936 18.375 0.875V14H16.625C16.3929 14 16.1704 14.0922 16.0063 14.2563C15.8422 14.4204 15.75 14.6429 15.75 14.875C15.75 15.1071 15.8422 15.3296 16.0063 15.4937C16.1704 15.6578 16.3929 15.75 16.625 15.75H21.875C22.1071 15.75 22.3296 15.6578 22.4937 15.4937C22.6578 15.3296 22.75 15.1071 22.75 14.875C22.75 14.6429 22.6578 14.4204 22.4937 14.2563C22.3296 14.0922 22.1071 14 21.875 14ZM3.5 14C3.26794 14 3.04538 14.0922 2.88128 14.2563C2.71719 14.4204 2.625 14.6429 2.625 14.875V20.125C2.625 20.3571 2.71719 20.5796 2.88128 20.7437C3.04538 20.9078 3.26794 21 3.5 21C3.73206 21 3.95462 20.9078 4.11872 20.7437C4.28281 20.5796 4.375 20.3571 4.375 20.125V14.875C4.375 14.6429 4.28281 14.4204 4.11872 14.2563C3.95462 14.0922 3.73206 14 3.5 14ZM6.125 10.5H4.375V0.875C4.375 0.642936 4.28281 0.420376 4.11872 0.256282C3.95462 0.0921874 3.73206 0 3.5 0C3.26794 0 3.04538 0.0921874 2.88128 0.256282C2.71719 0.420376 2.625 0.642936 2.625 0.875V10.5H0.875C0.642936 10.5 0.420376 10.5922 0.256282 10.7563C0.0921872 10.9204 0 11.1429 0 11.375C0 11.6071 0.0921872 11.8296 0.256282 11.9937C0.420376 12.1578 0.642936 12.25 0.875 12.25H6.125C6.35706 12.25 6.57962 12.1578 6.74372 11.9937C6.90781 11.8296 7 11.6071 7 11.375C7 11.1429 6.90781 10.9204 6.74372 10.7563C6.57962 10.5922 6.35706 10.5 6.125 10.5ZM14 5.25H12.25V0.875C12.25 0.642936 12.1578 0.420376 11.9937 0.256282C11.8296 0.0921874 11.6071 0 11.375 0C11.1429 0 10.9204 0.0921874 10.7563 0.256282C10.5922 0.420376 10.5 0.642936 10.5 0.875V5.25H8.75C8.51794 5.25 8.29538 5.34219 8.13128 5.50628C7.96719 5.67038 7.875 5.89294 7.875 6.125C7.875 6.35706 7.96719 6.57962 8.13128 6.74372C8.29538 6.90781 8.51794 7 8.75 7H14C14.2321 7 14.4546 6.90781 14.6187 6.74372C14.7828 6.57962 14.875 6.35706 14.875 6.125C14.875 5.89294 14.7828 5.67038 14.6187 5.50628C14.4546 5.34219 14.2321 5.25 14 5.25Z" fill="#878787"/>
</svg>
